<?xml version="1.0" encoding="utf-8"?><svg version="1.1" id="Layer_1" xmlns="http://www.w3.org/2000/svg" xmlns:xlink="http://www.w3.org/1999/xlink" x="0px" y="0px" viewBox="0 0 119.94 122.88" style="enable-background:new 0 0 119.94 122.88" xml:space="preserve"><style type="text/css"><![CDATA[
	.st0{fill-rule:evenodd;clip-rule:evenodd;fill:#78CDD4;}
	.st1{fill:#B1E0E6;}
	.st2{fill-rule:evenodd;clip-rule:evenodd;fill:#B1E0E6;}
	.st3{fill:#262626;}
	.st4{fill:#FEFDEF;}
	.st5{fill-rule:evenodd;clip-rule:evenodd;fill:#FEFDEF;}
]]></style><g><path class="st3" d="M115.19,28.94v6.92v7.38v7.38v24.05c0,3.64-1.49,6.94-3.88,9.33c-2.39,2.39-5.7,3.88-9.33,3.88 c-3.64,0-6.94-1.48-9.34-3.88c-2.39-2.39-3.88-5.7-3.88-9.33V28.94h-2.79c-0.54,0-1.03-0.22-1.38-0.57 c-0.06-0.06-0.1-0.11-0.15-0.17c-0.26-0.34-0.42-0.75-0.42-1.21v-7.32c0-0.53,0.22-1.02,0.57-1.37l0.01-0.01 c0.35-0.35,0.84-0.57,1.37-0.57h32.01c0.54,0,1.02,0.22,1.37,0.57l0,0.01l0.01-0.01c0.35,0.35,0.57,0.84,0.57,1.38v7.32 c0,0.54-0.22,1.03-0.57,1.38c-0.06,0.06-0.12,0.11-0.19,0.16c-0.33,0.26-0.75,0.41-1.19,0.41H115.19L115.19,28.94L115.19,28.94z"/><path class="st3" d="M34.71,33.47H60.8c2.04,0,3.69,1.65,3.69,3.69v18.98c0,0.65-0.01,0.42-0.02,1.35 c-0.01,0.76-0.01,1.17,0.01,1.24c0.03,0.1,0.33,0.56,0.98,1.56l27.31,42l0.15,0.23c2.02,3.26,2.97,6.54,2.91,9.48 c-0.04,1.86-0.47,3.57-1.28,5.08c-0.84,1.56-2.06,2.88-3.65,3.86c-1.97,1.23-4.49,1.92-7.51,1.9l-0.27,0.01H18.52 c-1.34,0-1.56,0-1.76,0.01c-4.52,0.08-8.86,0.16-13.04-3.52c-2.36-2.08-3.73-4.86-3.71-8.18c0.01-2.72,1-5.71,3.22-8.82 l27.24-42.62c0.43-0.67,0.59-0.85,0.61-0.91c0.02-0.08-0.02-0.18-0.03-0.67l-0.01-0.98l0.02-19.68c-0.01-0.11-0.01-0.21-0.01-0.32 C31.03,35.12,32.68,33.47,34.71,33.47L34.71,33.47z"/><path class="st5" d="M60.8,37.16H34.71l-0.02,20c0,2.85,0.22,2.39-1.31,4.78L6.21,104.47c-3.67,5.15-3.07,9.45-0.06,12.1 c3.61,3.18,7.93,2.59,12.37,2.59h64.59c8.86,0.2,11.46-7,6.68-14.7L62.62,62.68c-2.13-3.28-1.82-2.62-1.82-6.54V37.16L60.8,37.16z"/><path class="st2" d="M14.97,90.68l-8.81,13.79c-3.67,5.15-3.07,9.45-0.06,12.1c3.61,3.18,7.93,2.59,12.37,2.59h64.59 c8.86,0.2,11.46-7,6.68-14.7l-8.96-13.77H14.97L14.97,90.68z"/><path class="st3" d="M27.01,72.29c-0.98,0-1.77-0.79-1.77-1.77c0-0.98,0.79-1.77,1.77-1.77h6.97c0.98,0,1.77,0.79,1.77,1.77 c0,0.98-0.79,1.77-1.77,1.77H27.01L27.01,72.29z"/><path class="st3" d="M22.19,79.99c-0.98,0-1.77-0.79-1.77-1.77s0.79-1.77,1.77-1.77h8.92c0.98,0,1.77,0.79,1.77,1.77 s-0.79,1.77-1.77,1.77H22.19L22.19,79.99z"/><path class="st3" d="M17.24,87.86c-0.98,0-1.77-0.79-1.77-1.77c0-0.98,0.79-1.77,1.77-1.77h10.9c0.98,0,1.77,0.79,1.77,1.77 c0,0.98-0.79,1.77-1.77,1.77H17.24L17.24,87.86z"/><path class="st3" d="M59.63,101.14c2.17,0,4.14,0.88,5.56,2.31l0,0l0,0c1.43,1.43,2.31,3.4,2.31,5.57c0,2.17-0.88,4.14-2.31,5.57 c-1.43,1.43-3.4,2.31-5.57,2.31c-2.17,0-4.14-0.88-5.57-2.31c-1.43-1.42-2.31-3.39-2.31-5.57c0-2.17,0.88-4.14,2.31-5.57l0.15-0.14 C55.63,101.97,57.53,101.14,59.63,101.14L59.63,101.14z"/><path class="st0" d="M59.63,103.5c3.05,0,5.52,2.47,5.52,5.52s-2.47,5.52-5.52,5.52c-3.05,0-5.52-2.47-5.52-5.52 S56.58,103.5,59.63,103.5L59.63,103.5z"/><path class="st3" d="M78.36,101.06c1.23,0,2.35,0.5,3.16,1.31c0.81,0.81,1.31,1.93,1.31,3.16s-0.5,2.35-1.31,3.16 c-0.81,0.81-1.93,1.31-3.16,1.31s-2.35-0.5-3.16-1.31c-0.81-0.81-1.31-1.93-1.31-3.16s0.5-2.35,1.31-3.16 C76.01,101.56,77.13,101.06,78.36,101.06L78.36,101.06z"/><path class="st0" d="M78.36,103.42c1.17,0,2.11,0.94,2.11,2.11c0,1.17-0.94,2.11-2.11,2.11s-2.11-0.94-2.11-2.11 C76.25,104.37,77.2,103.42,78.36,103.42L78.36,103.42z"/><path class="st3" d="M61.78,81.15c1.7,0,3.25,0.7,4.37,1.82l0,0c1.12,1.12,1.81,2.67,1.81,4.38c0,1.7-0.69,3.24-1.81,4.37 l-0.01,0.01c-1.12,1.12-2.67,1.81-4.36,1.81c-1.7,0-3.24-0.69-4.37-1.81l-0.01-0.01c-1.12-1.12-1.81-2.67-1.81-4.36 c0-1.71,0.69-3.26,1.81-4.38c0.05-0.05,0.11-0.1,0.17-0.15C58.67,81.78,60.16,81.15,61.78,81.15L61.78,81.15z"/><path class="st0" d="M61.78,83.51c2.12,0,3.83,1.71,3.83,3.83c0,2.12-1.71,3.83-3.83,3.83c-2.12,0-3.83-1.72-3.83-3.83 C57.95,85.22,59.66,83.51,61.78,83.51L61.78,83.51z"/><path class="st3" d="M41.47,102.71c1.21,0,2.31,0.49,3.11,1.29c0.79,0.8,1.29,1.9,1.29,3.11s-0.49,2.31-1.29,3.11 c-0.06,0.06-0.13,0.12-0.19,0.17c-0.78,0.7-1.8,1.12-2.92,1.12c-1.2,0-2.3-0.49-3.1-1.29l-0.01-0.01c-0.79-0.8-1.28-1.89-1.28-3.09 c0-1.21,0.49-2.3,1.29-3.1l0,0C39.16,103.2,40.26,102.71,41.47,102.71L41.47,102.71z"/><path class="st0" d="M41.47,105.07c1.13,0,2.04,0.91,2.04,2.04s-0.91,2.04-2.04,2.04s-2.04-0.91-2.04-2.04 S40.35,105.07,41.47,105.07L41.47,105.07z"/><path class="st3" d="M46.22,66.77c1.21,0,2.31,0.49,3.11,1.29c0.8,0.79,1.29,1.9,1.29,3.11c0,1.21-0.49,2.31-1.29,3.11 c-0.06,0.06-0.13,0.12-0.19,0.17c-0.78,0.7-1.8,1.12-2.92,1.12c-1.2,0-2.3-0.49-3.1-1.29l-0.01-0.01c-0.79-0.8-1.28-1.89-1.28-3.09 c0-1.2,0.49-2.3,1.29-3.1l0,0C43.91,67.26,45.01,66.77,46.22,66.77L46.22,66.77z"/><path class="st0" d="M46.22,69.13c1.13,0,2.04,0.91,2.04,2.04s-0.91,2.04-2.04,2.04s-2.04-0.91-2.04-2.04S45.1,69.13,46.22,69.13 L46.22,69.13z"/><path class="st3" d="M45.84,81.38c1.37,0,2.61,0.56,3.5,1.45s1.45,2.14,1.45,3.5c0,1.37-0.56,2.61-1.45,3.5s-2.14,1.45-3.5,1.45 c-1.37,0-2.61-0.56-3.5-1.45c-0.9-0.9-1.45-2.14-1.45-3.5c0-1.37,0.56-2.61,1.45-3.5C43.23,81.94,44.47,81.38,45.84,81.38 L45.84,81.38z"/><path class="st0" d="M45.84,83.75c1.43,0,2.6,1.16,2.6,2.6c0,1.43-1.16,2.59-2.6,2.59c-1.43,0-2.6-1.16-2.6-2.59 C43.24,84.91,44.41,83.75,45.84,83.75L45.84,83.75z"/><path class="st3" d="M44.03,9.64c1.71,0,3.26,0.69,4.38,1.81c0.05,0.05,0.1,0.11,0.15,0.16c1.03,1.11,1.66,2.59,1.66,4.21 c0,1.71-0.69,3.26-1.81,4.38c-1.12,1.12-2.67,1.81-4.38,1.81c-1.7,0-3.25-0.7-4.37-1.82l0,0c-1.12-1.12-1.81-2.67-1.81-4.38 c0-1.7,0.69-3.24,1.81-4.37l0.01-0.01C40.79,10.33,42.34,9.64,44.03,9.64L44.03,9.64z"/><path class="st0" d="M44.03,12c2.12,0,3.83,1.72,3.83,3.83s-1.72,3.83-3.83,3.83s-3.83-1.72-3.83-3.83S41.92,12,44.03,12L44.03,12z"/><path class="st3" d="M53.44,0c1.37,0,2.61,0.56,3.5,1.45s1.45,2.14,1.45,3.5s-0.56,2.61-1.45,3.5c-0.9,0.9-2.14,1.45-3.5,1.45 s-2.61-0.56-3.5-1.45c-0.9-0.9-1.45-2.14-1.45-3.5s0.56-2.61,1.45-3.5C50.83,0.56,52.07,0,53.44,0L53.44,0z"/><path class="st0" d="M53.44,2.36c1.43,0,2.6,1.16,2.6,2.6c0,1.43-1.16,2.6-2.6,2.6c-1.43,0-2.6-1.16-2.6-2.6 C50.84,3.52,52,2.36,53.44,2.36L53.44,2.36z"/><path class="st3" d="M33.82,24.64h28.2c2.23,0,4.26,0.91,5.73,2.38c1.47,1.47,2.38,3.49,2.38,5.72c0,2.23-0.91,4.26-2.38,5.73 c-1.47,1.47-3.49,2.38-5.73,2.38h-28.2c-2.23,0-4.26-0.91-5.73-2.38s-2.38-3.49-2.38-5.73s0.91-4.26,2.38-5.73 C29.56,25.55,31.58,24.64,33.82,24.64L33.82,24.64z"/><path class="st5" d="M33.82,28.33h28.2c2.43,0,4.41,1.98,4.41,4.41l0,0c0,2.43-1.98,4.41-4.41,4.41h-28.2 c-2.43,0-4.41-1.98-4.41-4.41l0,0C29.4,30.32,31.39,28.33,33.82,28.33L33.82,28.33z"/><path class="st4" d="M112.21,52.14h-4.25c-0.84,0-1.52-0.69-1.52-1.52s0.68-1.52,1.52-1.52h4.25v-4.33h-7.98 c-0.84,0-1.23-0.69-1.23-1.52c0-0.84,0.39-1.52,1.23-1.52h7.97v-4.33h-4.25c-0.84,0-1.52-0.69-1.52-1.52s0.69-1.52,1.52-1.52h4.25 v-6.92c0-0.84,0.68-1.52,1.52-1.52h3.22v-5.13H87v5.13h3.22c0.84,0,1.52,0.69,1.52,1.52v47.32c0,2.79,1.14,5.33,2.99,7.18 c1.84,1.84,4.46,2.99,7.25,2.99s5.4-1.14,7.25-2.99c1.84-1.84,2.99-4.39,2.99-7.18L112.21,52.14L112.21,52.14L112.21,52.14z"/><path class="st1" d="M108.96,56.89v16.47c0,3.84-3.14,6.98-6.98,6.98l0,0c-3.84,0-6.98-3.14-6.98-6.98V56.89H108.96L108.96,56.89 L108.96,56.89z"/><path class="st0" d="M97.87,49.58c0.97,0,1.75-0.79,1.75-1.75c0-0.97-0.79-1.75-1.75-1.75s-1.75,0.79-1.75,1.75 C96.11,48.79,96.9,49.58,97.87,49.58L97.87,49.58z"/><path class="st0" d="M102.17,53.99c0.66,0,1.19-0.53,1.19-1.19s-0.53-1.19-1.19-1.19s-1.19,0.53-1.19,1.19 S101.51,53.99,102.17,53.99L102.17,53.99z"/></g></svg>